<svg fill="white" viewBox="0 0 400 400" xmlns="http://www.w3.org/2000/svg">
    <g>
        <path d="M 0 200.6755 C 0 90.978 88.0033 1.9712 197.1332 0.7095 C 196.2376 11.4088 192.5633 35.7294 177.4755 55.0691 C 157.5288 80.634 140.7424 95.9848 140.7424 122.5792 C 140.7424 149.1739 160.1361 170.1397 212.1647 191.6298 C 264.1932 213.1183 291.3098 244.8189 291.3098 274.4743 S 270.4119 345.1263 201.2289 344.5386 C 132.903 333.7716 166.3215 275.5031 184.6721 269.3662 C 184.6721 269.3662 131.6755 264.8278 131.6755 302.6825 C 131.6755 340.5382 181.6204 352.7206 210.9576 352.7206 C 240.2948 352.7206 330.0859 335.3389 330.0859 258.6261 C 330.0859 228.5081 318.3483 211.5728 318.3483 211.5728 S 362.8456 228.7549 357.628 272.4241 C 350.9841 327.5844 271.4288 331.4307 204.4811 395.2314 C 204.4811 395.2314 186.6518 374.3435 125.5083 344.0237 C 90.4934 326.6733 48.299 311.83 49.4797 260.191 C 50.4618 217.2455 95.9103 199.8009 95.9103 199.8009 S 19.3898 278.5558 129.0681 330.7314 C 129.0681 330.7314 58.163 220.2586 197.9467 196.218 C 197.9467 196.218 121.9333 176.791 118.8623 111.3262 C 118.8623 111.3262 106.1123 148.1512 87.7463 167.5762 C 69.3794 187.0037 23.5759 232.7502 29.7024 284.4038 C 34.95 328.6785 124.0757 356.2618 179.6264 399.6705 C 78.7465 389.6818 0.0065 304.4308 0.0065 200.6674 Z M 398.9742 200.6755 C 398.9742 300.4862 326.1179 383.1685 230.7869 398.2141 C 245.0865 386.207 263.5385 372.4642 282.1011 363.5221 C 321.3817 344.6018 452.4928 283.7382 302.049 168.6643 C 302.049 168.6643 279.0331 153.2816 277.0534 110.8584 C 264.0874 124.9428 256.8123 143.3609 256.6466 162.5275 C 256.6466 194.2295 279.1558 188.6762 281.6415 218.2249 C 281.6415 218.2249 237.2518 180.417 237.7585 150.7604 C 238.2646 121.1046 249.4964 89.3872 249.4964 89.3872 S 172.4694 124.6749 210.7225 180.421 C 210.7225 180.421 182.6593 169.1765 188.7813 131.3218 C 194.7866 94.1914 274.8642 92.4598 201.8718 0.7155 C 310.9867 1.9957 398.9699 90.9942 398.9699 200.6816 Z M 220.6367 316.6213 S 262.7247 303.4538 262.7247 270.4757 C 262.7247 237.4971 200.2467 179.1987 149.0744 255.0934 C 149.0744 255.0934 197.669 231.313 219.1032 262.7841 C 240.5379 294.2551 220.6367 316.622 220.6367 316.622 Z" />
    </g>
</svg>